<svg xmlns="http://www.w3.org/2000/svg" viewBox="0 0 512 512" role="img" aria-labelledby="title description">
  <title id="title">TEMPO Pelotas</title>
  <desc id="description">Sol sobre ondas, símbolo do portal de tempo e águas de Pelotas.</desc>
  <rect width="512" height="512" rx="112" fill="#071e2f"/>
  <circle cx="256" cy="202" r="88" fill="#f27035"/>
  <g fill="none" stroke="#18bdcd" stroke-width="24" stroke-linecap="round">
    <path d="M86 316c38 0 38-28 76-28s38 28 76 28 38-28 76-28 38 28 76 28 38-28 76-28"/>
    <path d="M86 374c38 0 38-28 76-28s38 28 76 28 38-28 76-28 38 28 76 28 38-28 76-28"/>
  </g>
  <g fill="none" stroke="#5e2ced" stroke-width="18" stroke-linecap="round">
    <path d="M256 76v34M256 294v34M130 202h34M348 202h34M167 113l24 24M321 267l24 24M345 113l-24 24M191 267l-24 24"/>
  </g>
</svg>
