<svg clip-rule="evenodd" fill-rule="evenodd" stroke-linecap="round" stroke-linejoin="round" stroke-miterlimit="2" version="1.1" viewBox="0 0 10694 1552" xml:space="preserve" xmlns="http://www.w3.org/2000/svg"><title>Tempo Pelotas — versão ciano</title><g transform="translate(-1511.2 -3315.6)"><g transform="matrix(168.86 0 0 168.86 -848883 -575719)"><path d="m5043 3429.5c0.136 0 0.256 0.05 0.36 0.15s0.156 0.214 0.156 0.342v1.392c0 0.136-0.052 0.256-0.156 0.36s-0.224 0.156-0.36 0.156h-1.896v5.424c0 0.152-0.046 0.28-0.138 0.384s-0.206 0.156-0.342 0.156h-1.596c-0.136 0-0.25-0.05-0.342-0.15s-0.138-0.226-0.138-0.378l0.084-5.436h-1.92c-0.152 0-0.278-0.052-0.378-0.156s-0.15-0.224-0.15-0.36v-1.392c0-0.136 0.05-0.252 0.15-0.348s0.226-0.144 0.378-0.144h6.288z" fill="none" stroke="#5f2ded" stroke-width=".01px"/><path d="m5043 3429.5c0.136 0 0.256 0.05 0.36 0.15s0.156 0.214 0.156 0.342v1.392c0 0.136-0.052 0.256-0.156 0.36s-0.224 0.156-0.36 0.156h-1.896v5.424c0 0.152-0.046 0.28-0.138 0.384s-0.206 0.156-0.342 0.156h-1.596c-0.136 0-0.25-0.05-0.342-0.15s-0.138-0.226-0.138-0.378l0.084-5.436h-1.92c-0.152 0-0.278-0.052-0.378-0.156s-0.15-0.224-0.15-0.36v-1.392c0-0.136 0.05-0.252 0.15-0.348s0.226-0.144 0.378-0.144h6.288z" fill="#18bdcd" fill-rule="nonzero"/></g><g transform="matrix(168.86 0 0 168.86 -849032 -575719)"><path d="m5047.3 3431.6v0.972h3.384c0.128 0 0.242 0.05 0.342 0.15s0.15 0.226 0.15 0.378v1.044c0 0.136-0.05 0.258-0.15 0.366s-0.214 0.162-0.342 0.162h-3.384v1.068h3.552c0.136 0 0.254 0.05 0.354 0.15s0.15 0.23 0.15 0.39v1.032c0 0.144-0.05 0.27-0.15 0.378s-0.218 0.162-0.354 0.162h-5.664c-0.136 0-0.254-0.054-0.354-0.162s-0.15-0.234-0.15-0.378v-7.284c0-0.152 0.05-0.278 0.15-0.378s0.218-0.15 0.354-0.15h5.664c0.136 0 0.254 0.05 0.354 0.15s0.15 0.226 0.15 0.378v1.044c0 0.136-0.052 0.258-0.156 0.366s-0.22 0.162-0.348 0.162h-3.552z" fill="none" stroke="#5f2ded" stroke-width=".01px"/><path d="m5047.3 3431.6v0.972h3.384c0.128 0 0.242 0.05 0.342 0.15s0.15 0.226 0.15 0.378v1.044c0 0.136-0.05 0.258-0.15 0.366s-0.214 0.162-0.342 0.162h-3.384v1.068h3.552c0.136 0 0.254 0.05 0.354 0.15s0.15 0.23 0.15 0.39v1.032c0 0.144-0.05 0.27-0.15 0.378s-0.218 0.162-0.354 0.162h-5.664c-0.136 0-0.254-0.054-0.354-0.162s-0.15-0.234-0.15-0.378v-7.284c0-0.152 0.05-0.278 0.15-0.378s0.218-0.15 0.354-0.15h5.664c0.136 0 0.254 0.05 0.354 0.15s0.15 0.226 0.15 0.378v1.044c0 0.136-0.052 0.258-0.156 0.366s-0.22 0.162-0.348 0.162h-3.552z" fill="#18bdcd" fill-rule="nonzero"/></g><g transform="matrix(168.86 0 0 168.86 -849222 -575719)"><path d="m5052.8 3437.4v-7.548c0-0.112 0.042-0.21 0.126-0.294s0.186-0.126 0.306-0.126h1.86c0.08 0 0.164 0.018 0.252 0.054s0.148 0.074 0.18 0.114l2.232 2.448 2.34-2.436c0.096-0.088 0.202-0.14 0.318-0.156s0.254-0.024 0.414-0.024h1.62c0.112 0 0.21 0.042 0.294 0.126s0.126 0.182 0.126 0.294v7.548c0 0.12-0.04 0.222-0.12 0.306s-0.18 0.126-0.3 0.126h-1.608c-0.12 0-0.226-0.042-0.318-0.126s-0.138-0.186-0.138-0.306v-4.416l-1.932 2.448c-0.16 0.216-0.364 0.324-0.612 0.324-0.12 0-0.234-0.026-0.342-0.078s-0.194-0.122-0.258-0.21l-1.98-2.484v4.416c0 0.12-0.04 0.222-0.119 0.306-0.08 0.084-0.179 0.126-0.299 0.126h-1.612c-0.119 0-0.221-0.044-0.304-0.132-0.084-0.088-0.126-0.188-0.126-0.3z" fill="none" stroke="#5f2ded" stroke-width=".01px"/><path d="m5052.8 3437.4v-7.548c0-0.112 0.042-0.21 0.126-0.294s0.186-0.126 0.306-0.126h1.86c0.08 0 0.164 0.018 0.252 0.054s0.148 0.074 0.18 0.114l2.232 2.448 2.34-2.436c0.096-0.088 0.202-0.14 0.318-0.156s0.254-0.024 0.414-0.024h1.62c0.112 0 0.21 0.042 0.294 0.126s0.126 0.182 0.126 0.294v7.548c0 0.12-0.04 0.222-0.12 0.306s-0.18 0.126-0.3 0.126h-1.608c-0.12 0-0.226-0.042-0.318-0.126s-0.138-0.186-0.138-0.306v-4.416l-1.932 2.448c-0.16 0.216-0.364 0.324-0.612 0.324-0.12 0-0.234-0.026-0.342-0.078s-0.194-0.122-0.258-0.21l-1.98-2.484v4.416c0 0.12-0.04 0.222-0.119 0.306-0.08 0.084-0.179 0.126-0.299 0.126h-1.612c-0.119 0-0.221-0.044-0.304-0.132-0.084-0.088-0.126-0.188-0.126-0.3z" fill="#18bdcd" fill-rule="nonzero"/></g><g transform="matrix(168.86 0 0 168.86 -849426 -575719)"><path d="m5064.4 3437.5v-7.596c0-0.136 0.06-0.252 0.18-0.348 0.119-0.096 0.263-0.144 0.43-0.144h2.595c1.18 0 2.073 0.213 2.679 0.64s0.933 1.074 0.98 1.943c0 0.032 2e-3 0.1 6e-3 0.204 4e-3 0.103 6e-3 0.227 6e-3 0.371 0 0.199-4e-3 0.342-0.012 0.43 0 0.528-0.138 1.026-0.415 1.494s-0.722 0.852-1.336 1.152-1.414 0.45-2.401 0.45v1.272c0 0.176-0.082 0.324-0.246 0.444s-0.366 0.18-0.606 0.18h-1.2c-0.184 0-0.34-0.048-0.468-0.144s-0.192-0.212-0.192-0.348zm2.196-3.744h0.708c0.376 0 0.714-0.07 1.014-0.211s0.45-0.464 0.45-0.971c0-0.37-0.096-0.646-0.288-0.826-0.192-0.181-0.488-0.272-0.888-0.272h-0.996c0.032 0 0.048-0.012 0.048-0.036v2.364c0-0.032-0.016-0.048-0.048-0.048z" fill="none" stroke="#5f2ded" stroke-width=".01px"/><path d="m5064.4 3437.5v-7.596c0-0.136 0.06-0.252 0.18-0.348 0.119-0.096 0.263-0.144 0.43-0.144h2.595c1.18 0 2.073 0.213 2.679 0.64s0.933 1.074 0.98 1.943c0 0.032 2e-3 0.1 6e-3 0.204 4e-3 0.103 6e-3 0.227 6e-3 0.371 0 0.199-4e-3 0.342-0.012 0.43 0 0.528-0.138 1.026-0.415 1.494s-0.722 0.852-1.336 1.152-1.414 0.45-2.401 0.45v1.272c0 0.176-0.082 0.324-0.246 0.444s-0.366 0.18-0.606 0.18h-1.2c-0.184 0-0.34-0.048-0.468-0.144s-0.192-0.212-0.192-0.348zm2.196-3.744h0.708c0.376 0 0.714-0.07 1.014-0.211s0.45-0.464 0.45-0.971c0-0.37-0.096-0.646-0.288-0.826-0.192-0.181-0.488-0.272-0.888-0.272h-0.996c0.032 0 0.048-0.012 0.048-0.036v2.364c0-0.032-0.016-0.048-0.048-0.048z" fill="#18bdcd" fill-rule="nonzero"/></g><g transform="matrix(168.86 0 0 168.86 -849539 -575719)"><path d="m5072.3 3433.7c0-0.792 0.198-1.524 0.594-2.196s0.93-1.206 1.602-1.602 1.404-0.594 2.196-0.594 1.526 0.198 2.202 0.594 1.212 0.93 1.608 1.602 0.594 1.404 0.594 2.196-0.198 1.524-0.594 2.196-0.932 1.206-1.608 1.602-1.41 0.594-2.202 0.594-1.524-0.198-2.196-0.594-1.206-0.93-1.602-1.602-0.594-1.404-0.594-2.196zm6.264-0.108c0-0.344-0.088-0.66-0.264-0.948s-0.41-0.518-0.702-0.69-0.606-0.258-0.942-0.258c-0.352 0-0.674 0.086-0.966 0.258s-0.522 0.402-0.69 0.69-0.252 0.604-0.252 0.948 0.084 0.662 0.252 0.954 0.398 0.524 0.69 0.696 0.614 0.258 0.966 0.258c0.336 0 0.65-0.086 0.942-0.258s0.526-0.404 0.702-0.696 0.264-0.61 0.264-0.954z" fill="none" stroke="#5f2ded" stroke-width=".01px"/><path d="m5072.3 3433.7c0-0.792 0.198-1.524 0.594-2.196s0.93-1.206 1.602-1.602 1.404-0.594 2.196-0.594 1.526 0.198 2.202 0.594 1.212 0.93 1.608 1.602 0.594 1.404 0.594 2.196-0.198 1.524-0.594 2.196-0.932 1.206-1.608 1.602-1.41 0.594-2.202 0.594-1.524-0.198-2.196-0.594-1.206-0.93-1.602-1.602-0.594-1.404-0.594-2.196zm6.264-0.108c0-0.344-0.088-0.66-0.264-0.948s-0.41-0.518-0.702-0.69-0.606-0.258-0.942-0.258c-0.352 0-0.674 0.086-0.966 0.258s-0.522 0.402-0.69 0.69-0.252 0.604-0.252 0.948 0.084 0.662 0.252 0.954 0.398 0.524 0.69 0.696 0.614 0.258 0.966 0.258c0.336 0 0.65-0.086 0.942-0.258s0.526-0.404 0.702-0.696 0.264-0.61 0.264-0.954z" fill="#18bdcd" fill-rule="nonzero"/></g><g transform="matrix(3.4732 0 0 3.4732 -14568 -6450)"><path d="m6727.6 2931.3-61.307-57.352-114.7 35.598 73.173 16.876-25.709 132.14-37.576 74.455 85.039 3.956 112.73-63.197 34.764 90.136 61.247-12.699 87.909-43.905 6.204 67.762 82.79-40.075 23.732 45.486 42.509-12.031 78.127-61.142 35.598 5.933 16.819 61.413 73.008-38.971 16.8 33.62 87.036-71.797 10.014 83.808 75.17-34.453 13.844 45.486 75.15-25.71 29.665-67.24-90.284-98.941-54.23-7.163-64.389-42.153s-54.432-32.213-83.437-27.598c-29.006 4.614-58.945 1.13-81.253 1.46-21.572 0.319-125.08-0.42-125.08-0.42s-124.42 40.841-132.05 204.04l-61.452-147.9-138.56 23.822-51.292-73.239z" fill="#18bdcd" stroke="#18bdcd" stroke-miterlimit="1.5" stroke-width="1px"/></g><g transform="matrix(134.31 0 0 134.31 7884.5 4567.6)"><path d="m11.606-1.606c-0.084 0.092-0.171 0.183-0.26 0.274-0.236 0.24-0.484 0.462-0.744 0.666s-0.522 0.366-0.786 0.486c-0.128 0.056-0.284 0.1-0.468 0.132s-0.4 0.048-0.648 0.048c-0.048 0-0.144-0.01-0.288-0.03s-0.29-0.076-0.438-0.168-0.282-0.232-0.402-0.42-0.18-0.454-0.18-0.798c0-0.4 0.058-0.794 0.174-1.182s0.27-0.76 0.462-1.116 0.414-0.686 0.666-0.99 0.516-0.566 0.792-0.786 0.554-0.394 0.834-0.522 0.54-0.192 0.78-0.192c0.144 0 0.28 0.022 0.408 0.066s0.244 0.102 0.348 0.174 0.186 0.16 0.246 0.264 0.09 0.216 0.09 0.336c0 0.48-0.088 0.89-0.264 1.23s-0.394 0.618-0.654 0.834-0.538 0.376-0.834 0.48-0.564 0.156-0.804 0.156c-0.088 0-0.164-6e-3 -0.228-0.018s-0.128-0.026-0.192-0.042c-0.104 0.272-0.186 0.538-0.246 0.798s-0.096 0.492-0.108 0.696 0 0.366 0.036 0.486 0.102 0.18 0.198 0.18c0.088 0 0.188-0.02 0.3-0.06s0.228-0.09 0.348-0.15 0.238-0.128 0.354-0.204 0.214-0.15 0.294-0.222c0.272-0.256 0.542-0.544 0.81-0.864s0.51-0.624 0.726-0.912c0.041-0.054 0.081-0.108 0.122-0.163 0.243-0.658 0.482-1.284 0.718-1.877 0.248-0.624 0.472-1.174 0.672-1.65s0.37-0.862 0.51-1.158 0.226-0.468 0.258-0.516c0.024-0.04 0.06-0.06 0.108-0.06 0.072 8e-3 0.172 0.038 0.3 0.09s0.252 0.116 0.372 0.192 0.22 0.16 0.3 0.252 0.108 0.182 0.084 0.27c-8e-3 0.024-0.058 0.142-0.15 0.354s-0.212 0.494-0.36 0.846-0.32 0.76-0.516 1.224-0.402 0.968-0.618 1.512c-0.144 0.344-0.274 0.694-0.39 1.05s-0.214 0.678-0.294 0.966-0.14 0.526-0.18 0.714-0.052 0.29-0.036 0.306c8e-3 8e-3 0.054-0.036 0.138-0.132s0.19-0.226 0.318-0.39 0.27-0.356 0.426-0.576 0.31-0.45 0.462-0.69c0.112-0.184 0.226-0.366 0.342-0.546s0.222-0.346 0.318-0.498c0.094-0.159 0.187-0.314 0.281-0.466-2e-3 -0.173 0.028-0.356 0.091-0.548 0.096-0.292 0.248-0.564 0.456-0.816s0.466-0.462 0.774-0.63 0.65-0.252 1.026-0.252c0.352 0 0.628 0.052 0.828 0.156s0.35 0.236 0.45 0.396 0.164 0.342 0.192 0.546 0.042 0.406 0.042 0.606c0 0.344-0.062 0.696-0.186 1.056s-0.254 0.688-0.39 0.984c0.184-0.112 0.354-0.254 0.51-0.426s0.292-0.342 0.408-0.51c0.025-0.036 0.049-0.071 0.072-0.105 0.183-0.492 0.363-0.967 0.54-1.425 0.252-0.652 0.482-1.23 0.69-1.734-0.28 0.056-0.55 0.112-0.81 0.168s-0.494 0.084-0.702 0.084c-0.032 0-0.062-2e-3 -0.09-6e-3s-0.054-6e-3 -0.078-6e-3c-0.184-0.016-0.33-0.07-0.438-0.162s-0.19-0.194-0.246-0.306-0.088-0.22-0.096-0.324-8e-3 -0.176 0-0.216c8e-3 -0.048 0.036-0.072 0.084-0.072 0.056 0 0.148 0.02 0.276 0.06s0.304 0.072 0.528 0.096c0.032 8e-3 0.064 0.012 0.096 0.012h0.108c0.24 0 0.508-0.026 0.804-0.078s0.612-0.11 0.948-0.174c0.096-0.224 0.174-0.404 0.234-0.54s0.102-0.22 0.126-0.252c0.024-0.04 0.064-0.06 0.12-0.06 0.064 8e-3 0.154 0.034 0.27 0.078s0.23 0.1 0.342 0.168 0.212 0.144 0.3 0.228 0.136 0.166 0.144 0.246c0.064 8e-3 0.128 0.012 0.192 0.012s0.128 4e-3 0.192 0.012c0.24 0.024 0.402 0.11 0.486 0.258s0.124 0.304 0.12 0.468-0.036 0.31-0.096 0.438-0.114 0.18-0.162 0.156c-0.096-0.04-0.218-0.096-0.366-0.168s-0.39-0.136-0.726-0.192c-0.152 0.384-0.342 0.858-0.57 1.422s-0.474 1.17-0.738 1.818c-0.144 0.344-0.274 0.694-0.39 1.05s-0.214 0.68-0.294 0.972-0.14 0.532-0.18 0.72-0.052 0.29-0.036 0.306c8e-3 8e-3 0.038-0.014 0.09-0.066s0.136-0.152 0.252-0.3 0.268-0.354 0.456-0.618 0.422-0.604 0.702-1.02c0.032-0.047 0.064-0.094 0.095-0.141 0.046-0.158 0.099-0.317 0.157-0.477 0.136-0.372 0.302-0.736 0.498-1.092s0.416-0.672 0.66-0.948 0.506-0.5 0.786-0.672 0.572-0.258 0.876-0.258c0.208 0 0.378 0.03 0.51 0.09s0.236 0.138 0.312 0.234 0.132 0.206 0.168 0.33 0.054 0.254 0.054 0.39c0.064-0.088 0.118-0.164 0.162-0.228s0.086-0.116 0.126-0.156c0.04-0.048 0.076-0.088 0.108-0.12 8e-3 -8e-3 0.028-0.012 0.06-0.012 0.064 0 0.144 0.026 0.24 0.078s0.19 0.11 0.282 0.174 0.17 0.13 0.234 0.198 0.1 0.114 0.108 0.138-2e-3 0.06-0.03 0.108-0.076 0.126-0.144 0.234-0.16 0.258-0.276 0.45-0.266 0.444-0.45 0.756c-0.176 0.312-0.328 0.634-0.456 0.966s-0.232 0.632-0.312 0.9-0.134 0.492-0.162 0.672-0.034 0.278-0.018 0.294c8e-3 8e-3 0.058-0.046 0.15-0.162s0.206-0.268 0.342-0.456 0.284-0.402 0.444-0.642 0.316-0.48 0.468-0.72c0.112-0.176 0.226-0.354 0.342-0.534s0.222-0.346 0.318-0.498c0.024-0.04 0.048-0.081 0.072-0.12 3e-3 -0.292 0.085-0.577 0.246-0.858 0.172-0.3 0.394-0.568 0.666-0.804s0.574-0.426 0.906-0.57 0.65-0.216 0.954-0.216 0.532 0.046 0.684 0.138 0.256 0.194 0.312 0.306 0.078 0.216 0.066 0.312-0.03 0.148-0.054 0.156c-0.024 0-0.04-4e-3 -0.048-0.012s-0.024-0.018-0.048-0.03-0.056-0.024-0.096-0.036-0.104-0.018-0.192-0.018c-0.192 0-0.39 0.046-0.594 0.138s-0.398 0.206-0.582 0.342-0.35 0.284-0.498 0.444-0.264 0.308-0.348 0.444-0.128 0.25-0.132 0.342 0.046 0.138 0.15 0.138c0.144 0 0.304 0.018 0.48 0.054s0.348 0.09 0.516 0.162 0.318 0.162 0.45 0.27 0.222 0.234 0.27 0.378c0.128-0.128 0.242-0.25 0.342-0.366s0.182-0.218 0.246-0.306c0.08-0.104 0.152-0.204 0.216-0.3 0.048-0.08 0.092-0.15 0.132-0.21s0.072-0.114 0.096-0.162c0.032-0.056 0.06-0.104 0.084-0.144 0.096 0.048 0.176 0.096 0.24 0.144 0.056 0.04 0.102 0.09 0.138 0.15s0.034 0.122-6e-3 0.186c-0.184 0.36-0.394 0.702-0.63 1.026s-0.542 0.578-0.918 0.762c-0.072 0.208-0.18 0.428-0.324 0.66s-0.328 0.444-0.552 0.636-0.486 0.352-0.786 0.48-0.642 0.192-1.026 0.192c-0.296 0-0.538-0.044-0.726-0.132s-0.338-0.194-0.45-0.318-0.19-0.256-0.234-0.396c-0.024-0.077-0.042-0.148-0.053-0.212-0.048 0.062-0.096 0.123-0.145 0.182-0.216 0.264-0.428 0.484-0.636 0.66s-0.392 0.264-0.552 0.264c-0.368 0-0.626-0.166-0.774-0.498s-0.162-0.782-0.042-1.35c-0.144 0.176-0.298 0.356-0.462 0.54s-0.332 0.352-0.504 0.504-0.344 0.276-0.516 0.372-0.33 0.144-0.474 0.144c-0.208 0-0.366-0.086-0.474-0.258s-0.168-0.396-0.18-0.672c-2e-3 -0.046-3e-3 -0.094-3e-3 -0.142-0.254 0.352-0.481 0.64-0.681 0.862-0.356 0.396-0.682 0.594-0.978 0.594-0.24 0-0.442-0.058-0.606-0.174s-0.274-0.302-0.33-0.558-0.052-0.584 0.012-0.984c0.034-0.212 0.088-0.448 0.162-0.707-0.019 0.014-0.04 0.028-0.06 0.041-0.236 0.156-0.518 0.262-0.846 0.318-0.152 0.24-0.324 0.464-0.516 0.672s-0.396 0.39-0.612 0.546-0.442 0.28-0.678 0.372-0.478 0.138-0.726 0.138c-0.096 0-0.22-0.018-0.372-0.054s-0.298-0.106-0.438-0.21-0.262-0.248-0.366-0.432c-0.091-0.161-0.142-0.365-0.154-0.612-0.143 0.193-0.287 0.375-0.434 0.546-0.216 0.252-0.426 0.462-0.63 0.63s-0.386 0.252-0.546 0.252c-0.24 0-0.442-0.058-0.606-0.174s-0.274-0.302-0.33-0.558-0.052-0.584 0.012-0.984c1e-3 -3e-3 1e-3 -7e-3 2e-3 -0.01zm15.887-1.379c-0.092 0.16-0.201 0.339-0.325 0.537-0.103 0.164-0.212 0.334-0.327 0.51 0.11-0.043 0.225-0.079 0.345-0.108 0.148-0.036 0.296-0.06 0.444-0.072s0.282-0.018 0.402-0.018 0.236 4e-3 0.348 0.012l0.336 0.024c0.024-0.064 0.04-0.118 0.048-0.162s0.012-0.078 0.012-0.102c0-0.112-0.03-0.198-0.09-0.258s-0.162-0.09-0.306-0.09c-0.072 0-0.174-0.012-0.306-0.036s-0.264-0.066-0.396-0.126c-0.066-0.03-0.128-0.067-0.185-0.111zm-18.037-0.267c0.152-0.016 0.346-0.058 0.582-0.126s0.458-0.194 0.666-0.378c0.2-0.176 0.354-0.352 0.462-0.528s0.182-0.334 0.222-0.474 0.05-0.254 0.03-0.342-0.058-0.132-0.114-0.132c-0.136 0-0.284 0.052-0.444 0.156s-0.32 0.244-0.48 0.42-0.32 0.384-0.48 0.624-0.308 0.5-0.444 0.78zm6.3 2.628c0.296 0 0.564-0.102 0.804-0.306s0.468-0.458 0.684-0.762c-0.448-0.048-0.908-0.248-1.38-0.6-0.08 0.152-0.146 0.318-0.198 0.498s-0.078 0.374-0.078 0.582c0 0.392 0.056 0.588 0.168 0.588zm0.48-3.204c0.112 0.04 0.206 0.09 0.282 0.15s0.134 0.122 0.174 0.186c0.048 0.064 0.084 0.132 0.108 0.204-0.04 0.024-0.084 0.052-0.132 0.084-0.04 0.032-0.088 0.07-0.144 0.114s-0.116 0.098-0.18 0.162c0.128 0.184 0.294 0.342 0.498 0.474s0.446 0.206 0.726 0.222c0.208-0.376 0.382-0.76 0.522-1.152s0.21-0.732 0.21-1.02v-0.294c0-0.124-0.012-0.246-0.036-0.366s-0.064-0.224-0.12-0.312-0.14-0.132-0.252-0.132c-0.2 0-0.39 0.052-0.57 0.156s-0.342 0.238-0.486 0.402-0.268 0.344-0.372 0.54-0.18 0.39-0.228 0.582zm8.844-0.348c0.024-0.112 0.042-0.226 0.054-0.342s0.016-0.22 0.012-0.312-0.022-0.166-0.054-0.222-0.084-0.084-0.156-0.084c-0.152 0-0.326 0.102-0.522 0.306s-0.39 0.456-0.582 0.756-0.376 0.628-0.552 0.984-0.322 0.684-0.438 0.984-0.192 0.552-0.228 0.756-0.018 0.306 0.054 0.306c0.056 0 0.146-0.05 0.27-0.15s0.262-0.224 0.414-0.372 0.306-0.306 0.462-0.474 0.294-0.32 0.414-0.456c0.088-0.264 0.216-0.552 0.384-0.864s0.324-0.584 0.468-0.816zm2.16 3.648c0.12 0 0.236-0.026 0.348-0.078s0.218-0.122 0.318-0.21 0.192-0.188 0.276-0.3 0.162-0.228 0.234-0.348h-0.072c-0.04-8e-3 -0.08-0.012-0.12-0.012h-0.12c-0.248 0-0.444 0.032-0.588 0.096s-0.252 0.132-0.324 0.204c-0.088 0.096-0.148 0.2-0.18 0.312v0.096c0 0.032 0.016 0.08 0.048 0.144s0.092 0.096 0.18 0.096zm-25.044 2.376c-0.024 0.024-0.068 0.036-0.132 0.036-0.104 0-0.238-0.03-0.402-0.09s-0.318-0.15-0.462-0.27-0.258-0.266-0.342-0.438-0.098-0.37-0.042-0.594c0.024-0.088 0.08-0.258 0.168-0.51s0.198-0.552 0.33-0.9 0.278-0.732 0.438-1.152 0.324-0.842 0.492-1.266c0.376-0.992 0.8-2.088 1.272-3.288 8e-3 -0.024 0.02-0.044 0.036-0.06 0.032-0.032 0.068-0.048 0.108-0.048 0.064 0 0.132 0.026 0.204 0.078s0.144 0.114 0.216 0.186 0.136 0.146 0.192 0.222 0.1 0.138 0.132 0.186c0.136 0.176 0.188 0.354 0.156 0.534s-0.08 0.35-0.144 0.51c-0.016 0.032-0.058 0.14-0.126 0.324s-0.156 0.416-0.264 0.696-0.226 0.592-0.354 0.936-0.26 0.696-0.396 1.056c0.072 0.04 0.16 0.072 0.264 0.096s0.224 0.036 0.36 0.036c0.376 0 0.726-0.13 1.05-0.39s0.61-0.578 0.858-0.954 0.442-0.778 0.582-1.206 0.21-0.81 0.21-1.146-0.054-0.638-0.162-0.906-0.244-0.496-0.408-0.684-0.344-0.332-0.54-0.432-0.382-0.15-0.558-0.15c-0.432 0-0.816 0.052-1.152 0.156s-0.63 0.242-0.882 0.414-0.468 0.366-0.648 0.582-0.33 0.44-0.45 0.672c-0.28 0.544-0.456 1.156-0.528 1.836-0.04 0-0.126-0.018-0.258-0.054s-0.27-0.12-0.414-0.252-0.272-0.322-0.384-0.57-0.168-0.58-0.168-0.996 0.124-0.808 0.372-1.176 0.574-0.688 0.978-0.96 0.862-0.488 1.374-0.648 1.032-0.24 1.56-0.24c0.504 0 0.97 0.104 1.398 0.312s0.798 0.492 1.11 0.852 0.558 0.78 0.738 1.26 0.27 0.992 0.27 1.536c0 0.536-0.114 1.06-0.342 1.572s-0.524 0.97-0.888 1.374-0.772 0.73-1.224 0.978-0.906 0.372-1.362 0.372c-0.296 0-0.518-0.074-0.666-0.222s-0.25-0.314-0.306-0.498c-0.216 0.56-0.386 1.02-0.51 1.38s-0.214 0.62-0.27 0.78c-0.072 0.192-0.112 0.356-0.12 0.492s-6e-3 0.248 6e-3 0.336 0.024 0.154 0.036 0.198 0.01 0.078-6e-3 0.102z" fill="none" stroke="#18bdcd" stroke-width=".69px"/><path d="m11.606-1.606c-0.084 0.092-0.171 0.183-0.26 0.274-0.236 0.24-0.484 0.462-0.744 0.666s-0.522 0.366-0.786 0.486c-0.128 0.056-0.284 0.1-0.468 0.132s-0.4 0.048-0.648 0.048c-0.048 0-0.144-0.01-0.288-0.03s-0.29-0.076-0.438-0.168-0.282-0.232-0.402-0.42-0.18-0.454-0.18-0.798c0-0.4 0.058-0.794 0.174-1.182s0.27-0.76 0.462-1.116 0.414-0.686 0.666-0.99 0.516-0.566 0.792-0.786 0.554-0.394 0.834-0.522 0.54-0.192 0.78-0.192c0.144 0 0.28 0.022 0.408 0.066s0.244 0.102 0.348 0.174 0.186 0.16 0.246 0.264 0.09 0.216 0.09 0.336c0 0.48-0.088 0.89-0.264 1.23s-0.394 0.618-0.654 0.834-0.538 0.376-0.834 0.48-0.564 0.156-0.804 0.156c-0.088 0-0.164-6e-3 -0.228-0.018s-0.128-0.026-0.192-0.042c-0.104 0.272-0.186 0.538-0.246 0.798s-0.096 0.492-0.108 0.696 0 0.366 0.036 0.486 0.102 0.18 0.198 0.18c0.088 0 0.188-0.02 0.3-0.06s0.228-0.09 0.348-0.15 0.238-0.128 0.354-0.204 0.214-0.15 0.294-0.222c0.272-0.256 0.542-0.544 0.81-0.864s0.51-0.624 0.726-0.912c0.041-0.054 0.081-0.108 0.122-0.163 0.243-0.658 0.482-1.284 0.718-1.877 0.248-0.624 0.472-1.174 0.672-1.65s0.37-0.862 0.51-1.158 0.226-0.468 0.258-0.516c0.024-0.04 0.06-0.06 0.108-0.06 0.072 8e-3 0.172 0.038 0.3 0.09s0.252 0.116 0.372 0.192 0.22 0.16 0.3 0.252 0.108 0.182 0.084 0.27c-8e-3 0.024-0.058 0.142-0.15 0.354s-0.212 0.494-0.36 0.846-0.32 0.76-0.516 1.224-0.402 0.968-0.618 1.512c-0.144 0.344-0.274 0.694-0.39 1.05s-0.214 0.678-0.294 0.966-0.14 0.526-0.18 0.714-0.052 0.29-0.036 0.306c8e-3 8e-3 0.054-0.036 0.138-0.132s0.19-0.226 0.318-0.39 0.27-0.356 0.426-0.576 0.31-0.45 0.462-0.69c0.112-0.184 0.226-0.366 0.342-0.546s0.222-0.346 0.318-0.498c0.094-0.159 0.187-0.314 0.281-0.466-2e-3 -0.173 0.028-0.356 0.091-0.548 0.096-0.292 0.248-0.564 0.456-0.816s0.466-0.462 0.774-0.63 0.65-0.252 1.026-0.252c0.352 0 0.628 0.052 0.828 0.156s0.35 0.236 0.45 0.396 0.164 0.342 0.192 0.546 0.042 0.406 0.042 0.606c0 0.344-0.062 0.696-0.186 1.056s-0.254 0.688-0.39 0.984c0.184-0.112 0.354-0.254 0.51-0.426s0.292-0.342 0.408-0.51c0.025-0.036 0.049-0.071 0.072-0.105 0.183-0.492 0.363-0.967 0.54-1.425 0.252-0.652 0.482-1.23 0.69-1.734-0.28 0.056-0.55 0.112-0.81 0.168s-0.494 0.084-0.702 0.084c-0.032 0-0.062-2e-3 -0.09-6e-3s-0.054-6e-3 -0.078-6e-3c-0.184-0.016-0.33-0.07-0.438-0.162s-0.19-0.194-0.246-0.306-0.088-0.22-0.096-0.324-8e-3 -0.176 0-0.216c8e-3 -0.048 0.036-0.072 0.084-0.072 0.056 0 0.148 0.02 0.276 0.06s0.304 0.072 0.528 0.096c0.032 8e-3 0.064 0.012 0.096 0.012h0.108c0.24 0 0.508-0.026 0.804-0.078s0.612-0.11 0.948-0.174c0.096-0.224 0.174-0.404 0.234-0.54s0.102-0.22 0.126-0.252c0.024-0.04 0.064-0.06 0.12-0.06 0.064 8e-3 0.154 0.034 0.27 0.078s0.23 0.1 0.342 0.168 0.212 0.144 0.3 0.228 0.136 0.166 0.144 0.246c0.064 8e-3 0.128 0.012 0.192 0.012s0.128 4e-3 0.192 0.012c0.24 0.024 0.402 0.11 0.486 0.258s0.124 0.304 0.12 0.468-0.036 0.31-0.096 0.438-0.114 0.18-0.162 0.156c-0.096-0.04-0.218-0.096-0.366-0.168s-0.39-0.136-0.726-0.192c-0.152 0.384-0.342 0.858-0.57 1.422s-0.474 1.17-0.738 1.818c-0.144 0.344-0.274 0.694-0.39 1.05s-0.214 0.68-0.294 0.972-0.14 0.532-0.18 0.72-0.052 0.29-0.036 0.306c8e-3 8e-3 0.038-0.014 0.09-0.066s0.136-0.152 0.252-0.3 0.268-0.354 0.456-0.618 0.422-0.604 0.702-1.02c0.032-0.047 0.064-0.094 0.095-0.141 0.046-0.158 0.099-0.317 0.157-0.477 0.136-0.372 0.302-0.736 0.498-1.092s0.416-0.672 0.66-0.948 0.506-0.5 0.786-0.672 0.572-0.258 0.876-0.258c0.208 0 0.378 0.03 0.51 0.09s0.236 0.138 0.312 0.234 0.132 0.206 0.168 0.33 0.054 0.254 0.054 0.39c0.064-0.088 0.118-0.164 0.162-0.228s0.086-0.116 0.126-0.156c0.04-0.048 0.076-0.088 0.108-0.12 8e-3 -8e-3 0.028-0.012 0.06-0.012 0.064 0 0.144 0.026 0.24 0.078s0.19 0.11 0.282 0.174 0.17 0.13 0.234 0.198 0.1 0.114 0.108 0.138-2e-3 0.06-0.03 0.108-0.076 0.126-0.144 0.234-0.16 0.258-0.276 0.45-0.266 0.444-0.45 0.756c-0.176 0.312-0.328 0.634-0.456 0.966s-0.232 0.632-0.312 0.9-0.134 0.492-0.162 0.672-0.034 0.278-0.018 0.294c8e-3 8e-3 0.058-0.046 0.15-0.162s0.206-0.268 0.342-0.456 0.284-0.402 0.444-0.642 0.316-0.48 0.468-0.72c0.112-0.176 0.226-0.354 0.342-0.534s0.222-0.346 0.318-0.498c0.024-0.04 0.048-0.081 0.072-0.12 3e-3 -0.292 0.085-0.577 0.246-0.858 0.172-0.3 0.394-0.568 0.666-0.804s0.574-0.426 0.906-0.57 0.65-0.216 0.954-0.216 0.532 0.046 0.684 0.138 0.256 0.194 0.312 0.306 0.078 0.216 0.066 0.312-0.03 0.148-0.054 0.156c-0.024 0-0.04-4e-3 -0.048-0.012s-0.024-0.018-0.048-0.03-0.056-0.024-0.096-0.036-0.104-0.018-0.192-0.018c-0.192 0-0.39 0.046-0.594 0.138s-0.398 0.206-0.582 0.342-0.35 0.284-0.498 0.444-0.264 0.308-0.348 0.444-0.128 0.25-0.132 0.342 0.046 0.138 0.15 0.138c0.144 0 0.304 0.018 0.48 0.054s0.348 0.09 0.516 0.162 0.318 0.162 0.45 0.27 0.222 0.234 0.27 0.378c0.128-0.128 0.242-0.25 0.342-0.366s0.182-0.218 0.246-0.306c0.08-0.104 0.152-0.204 0.216-0.3 0.048-0.08 0.092-0.15 0.132-0.21s0.072-0.114 0.096-0.162c0.032-0.056 0.06-0.104 0.084-0.144 0.096 0.048 0.176 0.096 0.24 0.144 0.056 0.04 0.102 0.09 0.138 0.15s0.034 0.122-6e-3 0.186c-0.184 0.36-0.394 0.702-0.63 1.026s-0.542 0.578-0.918 0.762c-0.072 0.208-0.18 0.428-0.324 0.66s-0.328 0.444-0.552 0.636-0.486 0.352-0.786 0.48-0.642 0.192-1.026 0.192c-0.296 0-0.538-0.044-0.726-0.132s-0.338-0.194-0.45-0.318-0.19-0.256-0.234-0.396c-0.024-0.077-0.042-0.148-0.053-0.212-0.048 0.062-0.096 0.123-0.145 0.182-0.216 0.264-0.428 0.484-0.636 0.66s-0.392 0.264-0.552 0.264c-0.368 0-0.626-0.166-0.774-0.498s-0.162-0.782-0.042-1.35c-0.144 0.176-0.298 0.356-0.462 0.54s-0.332 0.352-0.504 0.504-0.344 0.276-0.516 0.372-0.33 0.144-0.474 0.144c-0.208 0-0.366-0.086-0.474-0.258s-0.168-0.396-0.18-0.672c-2e-3 -0.046-3e-3 -0.094-3e-3 -0.142-0.254 0.352-0.481 0.64-0.681 0.862-0.356 0.396-0.682 0.594-0.978 0.594-0.24 0-0.442-0.058-0.606-0.174s-0.274-0.302-0.33-0.558-0.052-0.584 0.012-0.984c0.034-0.212 0.088-0.448 0.162-0.707-0.019 0.014-0.04 0.028-0.06 0.041-0.236 0.156-0.518 0.262-0.846 0.318-0.152 0.24-0.324 0.464-0.516 0.672s-0.396 0.39-0.612 0.546-0.442 0.28-0.678 0.372-0.478 0.138-0.726 0.138c-0.096 0-0.22-0.018-0.372-0.054s-0.298-0.106-0.438-0.21-0.262-0.248-0.366-0.432c-0.091-0.161-0.142-0.365-0.154-0.612-0.143 0.193-0.287 0.375-0.434 0.546-0.216 0.252-0.426 0.462-0.63 0.63s-0.386 0.252-0.546 0.252c-0.24 0-0.442-0.058-0.606-0.174s-0.274-0.302-0.33-0.558-0.052-0.584 0.012-0.984c1e-3 -3e-3 1e-3 -7e-3 2e-3 -0.01zm15.887-1.379c-0.092 0.16-0.201 0.339-0.325 0.537-0.103 0.164-0.212 0.334-0.327 0.51 0.11-0.043 0.225-0.079 0.345-0.108 0.148-0.036 0.296-0.06 0.444-0.072s0.282-0.018 0.402-0.018 0.236 4e-3 0.348 0.012l0.336 0.024c0.024-0.064 0.04-0.118 0.048-0.162s0.012-0.078 0.012-0.102c0-0.112-0.03-0.198-0.09-0.258s-0.162-0.09-0.306-0.09c-0.072 0-0.174-0.012-0.306-0.036s-0.264-0.066-0.396-0.126c-0.066-0.03-0.128-0.067-0.185-0.111zm-18.037-0.267c0.152-0.016 0.346-0.058 0.582-0.126s0.458-0.194 0.666-0.378c0.2-0.176 0.354-0.352 0.462-0.528s0.182-0.334 0.222-0.474 0.05-0.254 0.03-0.342-0.058-0.132-0.114-0.132c-0.136 0-0.284 0.052-0.444 0.156s-0.32 0.244-0.48 0.42-0.32 0.384-0.48 0.624-0.308 0.5-0.444 0.78zm6.3 2.628c0.296 0 0.564-0.102 0.804-0.306s0.468-0.458 0.684-0.762c-0.448-0.048-0.908-0.248-1.38-0.6-0.08 0.152-0.146 0.318-0.198 0.498s-0.078 0.374-0.078 0.582c0 0.392 0.056 0.588 0.168 0.588zm0.48-3.204c0.112 0.04 0.206 0.09 0.282 0.15s0.134 0.122 0.174 0.186c0.048 0.064 0.084 0.132 0.108 0.204-0.04 0.024-0.084 0.052-0.132 0.084-0.04 0.032-0.088 0.07-0.144 0.114s-0.116 0.098-0.18 0.162c0.128 0.184 0.294 0.342 0.498 0.474s0.446 0.206 0.726 0.222c0.208-0.376 0.382-0.76 0.522-1.152s0.21-0.732 0.21-1.02v-0.294c0-0.124-0.012-0.246-0.036-0.366s-0.064-0.224-0.12-0.312-0.14-0.132-0.252-0.132c-0.2 0-0.39 0.052-0.57 0.156s-0.342 0.238-0.486 0.402-0.268 0.344-0.372 0.54-0.18 0.39-0.228 0.582zm8.844-0.348c0.024-0.112 0.042-0.226 0.054-0.342s0.016-0.22 0.012-0.312-0.022-0.166-0.054-0.222-0.084-0.084-0.156-0.084c-0.152 0-0.326 0.102-0.522 0.306s-0.39 0.456-0.582 0.756-0.376 0.628-0.552 0.984-0.322 0.684-0.438 0.984-0.192 0.552-0.228 0.756-0.018 0.306 0.054 0.306c0.056 0 0.146-0.05 0.27-0.15s0.262-0.224 0.414-0.372 0.306-0.306 0.462-0.474 0.294-0.32 0.414-0.456c0.088-0.264 0.216-0.552 0.384-0.864s0.324-0.584 0.468-0.816zm2.16 3.648c0.12 0 0.236-0.026 0.348-0.078s0.218-0.122 0.318-0.21 0.192-0.188 0.276-0.3 0.162-0.228 0.234-0.348h-0.072c-0.04-8e-3 -0.08-0.012-0.12-0.012h-0.12c-0.248 0-0.444 0.032-0.588 0.096s-0.252 0.132-0.324 0.204c-0.088 0.096-0.148 0.2-0.18 0.312v0.096c0 0.032 0.016 0.08 0.048 0.144s0.092 0.096 0.18 0.096zm-25.044 2.376c-0.024 0.024-0.068 0.036-0.132 0.036-0.104 0-0.238-0.03-0.402-0.09s-0.318-0.15-0.462-0.27-0.258-0.266-0.342-0.438-0.098-0.37-0.042-0.594c0.024-0.088 0.08-0.258 0.168-0.51s0.198-0.552 0.33-0.9 0.278-0.732 0.438-1.152 0.324-0.842 0.492-1.266c0.376-0.992 0.8-2.088 1.272-3.288 8e-3 -0.024 0.02-0.044 0.036-0.06 0.032-0.032 0.068-0.048 0.108-0.048 0.064 0 0.132 0.026 0.204 0.078s0.144 0.114 0.216 0.186 0.136 0.146 0.192 0.222 0.1 0.138 0.132 0.186c0.136 0.176 0.188 0.354 0.156 0.534s-0.08 0.35-0.144 0.51c-0.016 0.032-0.058 0.14-0.126 0.324s-0.156 0.416-0.264 0.696-0.226 0.592-0.354 0.936-0.26 0.696-0.396 1.056c0.072 0.04 0.16 0.072 0.264 0.096s0.224 0.036 0.36 0.036c0.376 0 0.726-0.13 1.05-0.39s0.61-0.578 0.858-0.954 0.442-0.778 0.582-1.206 0.21-0.81 0.21-1.146-0.054-0.638-0.162-0.906-0.244-0.496-0.408-0.684-0.344-0.332-0.54-0.432-0.382-0.15-0.558-0.15c-0.432 0-0.816 0.052-1.152 0.156s-0.63 0.242-0.882 0.414-0.468 0.366-0.648 0.582-0.33 0.44-0.45 0.672c-0.28 0.544-0.456 1.156-0.528 1.836-0.04 0-0.126-0.018-0.258-0.054s-0.27-0.12-0.414-0.252-0.272-0.322-0.384-0.57-0.168-0.58-0.168-0.996 0.124-0.808 0.372-1.176 0.574-0.688 0.978-0.96 0.862-0.488 1.374-0.648 1.032-0.24 1.56-0.24c0.504 0 0.97 0.104 1.398 0.312s0.798 0.492 1.11 0.852 0.558 0.78 0.738 1.26 0.27 0.992 0.27 1.536c0 0.536-0.114 1.06-0.342 1.572s-0.524 0.97-0.888 1.374-0.772 0.73-1.224 0.978-0.906 0.372-1.362 0.372c-0.296 0-0.518-0.074-0.666-0.222s-0.25-0.314-0.306-0.498c-0.216 0.56-0.386 1.02-0.51 1.38s-0.214 0.62-0.27 0.78c-0.072 0.192-0.112 0.356-0.12 0.492s-6e-3 0.248 6e-3 0.336 0.024 0.154 0.036 0.198 0.01 0.078-6e-3 0.102z" fill="#fff"/></g></g></svg>